<svg width="6" height="5" viewBox="0 0 6 5" fill="none" xmlns="http://www.w3.org/2000/svg">
<path d="M0.528564 0.564475C0.528564 0.254275 0.780031 0.00280762 1.09023 0.00280762H4.72957C5.03977 0.00280762 5.29123 0.254275 5.29123 0.564475C5.29123 0.874674 5.03977 1.12614 4.72957 1.12614H1.09023C0.780032 1.12614 0.528564 0.874674 0.528564 0.564475Z" fill="white"/>
<path d="M0.528564 2.27389C0.528564 1.96369 0.780031 1.71222 1.09023 1.71222H4.72957C5.03977 1.71222 5.29123 1.96369 5.29123 2.27389C5.29123 2.58409 5.03977 2.83555 4.72957 2.83555H1.09023C0.780032 2.83555 0.528564 2.58409 0.528564 2.27389Z" fill="white"/>
<path d="M0.528564 3.9833C0.528564 3.6731 0.780031 3.42163 1.09023 3.42163H4.72957C5.03977 3.42163 5.29123 3.6731 5.29123 3.9833C5.29123 4.2935 5.03977 4.54496 4.72957 4.54496H1.09023C0.780032 4.54496 0.528564 4.2935 0.528564 3.9833Z" fill="white"/>
</svg>
